<?xml version="1.0" encoding="UTF-8"?>
<svg version="1.1" xmlns="http://www.w3.org/2000/svg" width="980" height="938">
<path d="M0 0 C3.411054 1.50236077 6.35489913 3.49537358 9.3671875 5.66015625 C10.80076809 6.66798747 12.23436268 7.67579878 13.66796875 8.68359375 C14.44221191 9.23241211 15.21645508 9.78123047 16.01416016 10.34667969 C19.54984826 12.84500039 23.10783231 15.31080479 26.66455078 17.77905273 C29.6103861 19.8238178 32.5535925 21.87231543 35.49609375 23.921875 C41.32658558 27.98268338 47.15913345 32.04052947 52.9921875 36.09765625 C58.82524155 40.15478303 64.65778942 44.21262912 70.48828125 48.2734375 C78.87120267 54.11069872 87.25396331 59.94728731 95.6796875 65.72265625 C102.33990581 70.28863818 108.95803694 74.91316683 115.57006836 79.54858398 C129.19396265 89.09813949 142.84352422 98.61093494 156.56738281 108.01635742 C162.7650422 112.2706964 168.91700817 116.58964916 175.07104492 120.90673828 C180.19339331 124.49714644 185.33147487 128.06264342 190.4921875 131.59765625 C196.37080263 135.6256374 202.21963064 139.69433606 208.0546875 143.78515625 C222.51624736 153.92369254 236.99882023 164.03203084 251.56738281 174.01635742 C257.7650422 178.2706964 263.91700817 182.58964916 270.07104492 186.90673828 C275.19339218 190.49714565 280.33141266 194.06273527 285.4921875 197.59765625 C292.38542652 202.31924476 299.23034211 207.10790713 306.0703125 211.90625 C311.19292359 215.49679182 316.33117063 219.06256949 321.4921875 222.59765625 C328.38542652 227.31924476 335.23034211 232.10790713 342.0703125 236.90625 C347.82155653 240.93741338 353.59728576 244.93048439 359.39208984 248.89868164 C365.85026206 253.32818967 372.26117059 257.82472476 378.66796875 262.328125 C379.46847656 262.89015625 380.26898437 263.4521875 381.09375 264.03125 C381.79838379 264.52681396 382.50301758 265.02237793 383.22900391 265.53295898 C385.55930842 267.24705586 385.55930842 267.24705586 388.73046875 268.5402832 C391.9564908 271.52760472 391.93890402 272.197037 392.17333984 276.41699219 C392.17184193 278.63889806 392.1387867 280.86095311 392.078125 283.08203125 C392.07208252 284.1198877 392.06604004 285.15774414 392.05981445 286.22705078 C392.02844079 290.10099104 391.94467163 293.9743639 391.8671875 297.84765625 C391.7434375 306.51015625 391.6196875 315.17265625 391.4921875 324.09765625 C423.8321875 324.09765625 456.1721875 324.09765625 489.4921875 324.09765625 C489.4921875 348.84765625 489.4921875 373.59765625 489.4921875 399.09765625 C446.2621875 399.09765625 403.0321875 399.09765625 358.4921875 399.09765625 C358.4921875 517.23765625 358.4921875 635.37765625 358.4921875 757.09765625 C391.8221875 757.09765625 425.1521875 757.09765625 459.4921875 757.09765625 C461.86715548 769.56623814 464.22155457 782.01193479 466.33300781 794.52319336 C466.58958419 796.03380642 466.84633442 797.54438996 467.10324097 799.0549469 C467.78690471 803.0784166 468.46783646 807.10234348 469.14791965 811.12641978 C469.57428829 813.64851801 470.00126008 816.17051341 470.42842865 818.69247627 C471.92200661 827.51066547 473.41325479 836.32924505 474.90234375 845.14819336 C476.28633802 853.34433007 477.67569917 861.53954523 479.06744313 869.73436922 C480.26846917 876.80769777 481.46570687 883.88166079 482.66001201 890.95612723 C483.37081277 895.16613956 484.08314626 899.37587821 484.79935455 903.58497429 C485.47022718 907.52837372 486.13638207 911.47254141 486.79892349 915.41734886 C487.04231193 916.86160186 487.28737711 918.30557346 487.5342598 919.74923325 C487.8714213 921.72238231 488.20189114 923.6966713 488.53204346 925.67100525 C488.71858112 926.77384826 488.90511879 927.87669127 489.09730911 929.01295376 C489.4921875 932.09765625 489.4921875 932.09765625 489.4921875 938.09765625 C166.0921875 938.09765625 -157.3078125 938.09765625 -490.5078125 938.09765625 C-489.38279201 924.59741032 -489.38279201 924.59741032 -488.33129883 918.37278748 C-488.2168105 917.68678138 -488.10232218 917.00077529 -487.98436451 916.29398113 C-487.60754388 914.04339645 -487.22374634 911.79406425 -486.83984375 909.54467773 C-486.56504047 907.91239869 -486.29066918 906.28004687 -486.01669312 904.64762878 C-485.27744733 900.25080831 -484.5320449 895.85505261 -483.78533554 891.45949435 C-483.00307946 886.84904768 -482.22613701 882.23770537 -481.44848633 877.6264801 C-480.14385212 869.89518589 -478.83539085 862.16454728 -477.52441406 854.43432617 C-476.00843142 845.4951111 -474.49763153 836.55503246 -472.98976994 827.6144442 C-471.38236471 818.08391121 -469.77130518 808.55399867 -468.15911484 799.02427411 C-467.69506655 796.27979539 -467.23169282 793.53520347 -466.76846313 790.79058647 C-466.04187111 786.48670308 -465.31282879 782.18324171 -464.58186722 777.88009834 C-464.31376935 776.29957057 -464.04648748 774.71890414 -463.78007126 773.13809204 C-463.41704353 770.98490158 -463.05107514 768.83223151 -462.68432617 766.67967224 C-462.48006516 765.47388236 -462.27580414 764.26809248 -462.06535339 763.02576351 C-461.5078125 760.09765625 -461.5078125 760.09765625 -460.5078125 757.09765625 C-427.1778125 757.09765625 -393.8478125 757.09765625 -359.5078125 757.09765625 C-359.5078125 638.95765625 -359.5078125 520.81765625 -359.5078125 399.09765625 C-402.7378125 399.09765625 -445.9678125 399.09765625 -490.5078125 399.09765625 C-490.5078125 374.34765625 -490.5078125 349.59765625 -490.5078125 324.09765625 C-458.1678125 324.09765625 -425.8278125 324.09765625 -392.5078125 324.09765625 C-393.13902563 307.14657963 -393.13902563 307.14657963 -393.94921875 290.20385742 C-394.47014801 273.99256879 -394.47014801 273.99256879 -391.06399536 268.96768188 C-387.40273114 265.40101403 -383.14871239 263.17944408 -378.5335083 261.06674194 C-375.6984149 259.71044331 -373.25201174 257.94118177 -370.72265625 256.0859375 C-369.85511719 255.48201172 -368.98757813 254.87808594 -368.09375 254.25585938 C-367.21976562 253.64677734 -366.34578125 253.03769531 -365.4453125 252.41015625 C-363.46485231 251.03123771 -361.4843833 249.65233182 -359.50390625 248.2734375 C-358.51116699 247.5820166 -357.51842773 246.8905957 -356.49560547 246.17822266 C-350.71533217 242.15309689 -344.93238429 238.1318151 -339.14990234 234.10986328 C-334.26958736 230.71518705 -329.38999225 227.31948441 -324.51171875 223.921875 C-316.12879733 218.08461378 -307.74603669 212.24802519 -299.3203125 206.47265625 C-292.66009419 201.90667432 -286.04196306 197.28214567 -279.42993164 192.64672852 C-265.80603735 183.09717301 -252.15647578 173.58437756 -238.43261719 164.17895508 C-232.2349578 159.9246161 -226.08299183 155.60566334 -219.92895508 151.28857422 C-214.80660669 147.69816606 -209.66852513 144.13266908 -204.5078125 140.59765625 C-198.62919737 136.5696751 -192.78036936 132.50097644 -186.9453125 128.41015625 C-172.48375264 118.27161996 -158.00117977 108.16328166 -143.43261719 98.17895508 C-137.2349578 93.9246161 -131.08299183 89.60566334 -124.92895508 85.28857422 C-119.17065345 81.25240729 -113.38740545 77.25501971 -107.5859375 73.28125 C-102.2021694 69.58798509 -96.85257653 65.8470892 -91.5078125 62.09765625 C-84.89137468 57.45612487 -78.25382874 52.84848445 -71.5859375 48.28125 C-66.2021694 44.58798509 -60.85257653 40.8470892 -55.5078125 37.09765625 C-49.52721242 32.90217468 -43.53490074 28.72609288 -37.5078125 24.59765625 C-31.29547533 20.34127635 -25.11440543 16.04147259 -18.9453125 11.72265625 C-18.11193359 11.13935547 -17.27855469 10.55605469 -16.41992188 9.95507812 C-15.62263672 9.39626953 -14.82535156 8.83746094 -14.00390625 8.26171875 C-13.23804199 7.7296582 -12.47217773 7.19759766 -11.68310547 6.64941406 C-10.27699559 5.64635745 -8.89330918 4.61074888 -7.53955078 3.53808594 C-3.18058189 0.12385444 -3.18058189 0.12385444 0 0 Z M-44.5078125 129.09765625 C-57.07426057 142.15552966 -63.06498848 158.51596696 -62.85522461 176.45727539 C-62.32656957 193.00958678 -55.18522099 207.80215617 -43.5 219.4375 C-30.81124648 231.20305186 -14.37267538 236.70751785 2.70703125 236.41015625 C20.90246125 234.90795357 36.27117728 226.68282352 48.2421875 212.91015625 C59.08910494 199.03530073 63.20727156 182.43466071 61.4921875 165.09765625 C58.84165931 147.54052401 49.48203085 134.39694517 36.1171875 123.22265625 C11.20863104 104.93253131 -22.1143496 108.73996271 -44.5078125 129.09765625 Z M-244.5078125 399.09765625 C-244.5078125 517.23765625 -244.5078125 635.37765625 -244.5078125 757.09765625 C-216.1278125 757.09765625 -187.7478125 757.09765625 -158.5078125 757.09765625 C-158.5078125 638.95765625 -158.5078125 520.81765625 -158.5078125 399.09765625 C-186.8878125 399.09765625 -215.2678125 399.09765625 -244.5078125 399.09765625 Z M-43.5078125 399.09765625 C-43.5078125 517.23765625 -43.5078125 635.37765625 -43.5078125 757.09765625 C-15.1278125 757.09765625 13.2521875 757.09765625 42.4921875 757.09765625 C42.4921875 638.95765625 42.4921875 520.81765625 42.4921875 399.09765625 C14.1121875 399.09765625 -14.2678125 399.09765625 -43.5078125 399.09765625 Z M157.4921875 399.09765625 C157.4921875 517.23765625 157.4921875 635.37765625 157.4921875 757.09765625 C185.8721875 757.09765625 214.2521875 757.09765625 243.4921875 757.09765625 C243.4921875 638.95765625 243.4921875 520.81765625 243.4921875 399.09765625 C215.1121875 399.09765625 186.7321875 399.09765625 157.4921875 399.09765625 Z " fill="#000000" transform="translate(490.5078125,-0.09765625)"/>
</svg>
